<?xml version="1.0" standalone="no"?>
<!DOCTYPE svg PUBLIC "-//W3C//DTD SVG 1.1//EN" "http://www.w3.org/Graphics/SVG/1.1/DTD/svg11.dtd" >
<svg xmlns="http://www.w3.org/2000/svg">
<metadata>Generated by IcoMoon</metadata>
<defs>
<font id="icomoon" horiz-adv-x="1024">
<font-face units-per-em="1024" ascent="960" descent="-64" />
<missing-glyph horiz-adv-x="1024" />
<glyph unicode="&#x20;" horiz-adv-x="512" d="" />
<glyph unicode="&#xe600;" glyph-name="add" d="M512 960c-282.8 0-512-229.2-512-512s229.2-512 512-512 512 229.2 512 512-229.2 512-512 512zM512 64c-212 0-384 172-384 384s172 384 384 384 384-172 384-384c0-212-172-384-384-384zM576 512v192h-128v-192h-192v-128h192v-192h128v192h192v128z" />
<glyph unicode="&#xe601;" glyph-name="alert" d="M512 960c-282.8 0-512-229.2-512-512s229.2-512 512-512 512 229.2 512 512-229.2 512-512 512zM512 64c-212 0-384 172-384 384s172 384 384 384 384-172 384-384c0-212-172-384-384-384zM448 704h128v-320h-128v320zM448 320h128v-128h-128v128z" />
<glyph unicode="&#xe602;" glyph-name="book" d="M896 832v-800c0-18-14-32-32-32h-704c-18 0-32 14-32 32 0 15.6 0 32 0 32s632.4 0 640 0c36 0 64 28 64 64 0 8 0 768 0 768 0 35.2-28.8 64-64 64h-640c-35.2 0-64-28.8-64-64v-896c0-36 28-64 64-64h768c36 0 64 28 64 64v768c0 36-28 64-64 64zM256 832h448v-64h-448v64zM256 704h256v-64h-256v64z" />
<glyph unicode="&#xe603;" glyph-name="bookmark" d="M768 960h-512c-36 0-64-28-64-64 0-224 0-960 0-960l320 320 320-316c0 0 0 732.8 0 956 0 36-28 64-64 64z" />
<glyph unicode="&#xe604;" glyph-name="box" d="M996 716c-19.2 9.2-431.6 217.6-452 228s-43.2 10.4-64 0c-18.4-9.2-430.8-215.6-448-224-20.4-9.6-32-33.2-32-56v-436c0-26.8 15.6-47.6 32-56s426-209.6 448-220c22-10.4 43.2-10 64 0s431.6 217.2 452 228 28 32 28 52v432c0 21.2-8.8 42.8-28 52zM480 96l-352 176v312l352-176v-312zM512 468l-352 172 352 176 348-176-348-172zM896 272l-352-176v316l352 172v-312z" />
<glyph unicode="&#xe605;" glyph-name="building" d="M960 64c-38 0-64 0-64 0s0 650.4 0 832c0 35.6-28.4 64-64 64h-640c-36 0-64-27.6-64-64 0-181.6 0-832 0-832s-26 0-64 0c-36.4 0-64-28-64-64 0-14.4 0-64 0-64h1024c0 0 0 49.2 0 64 0 36-28 64-64 64zM768 64h-512v192h512v-192zM768 320h-512v128h512v-128zM768 512h-512v128h512v-128zM768 704h-512v128h512v-128z" />
<glyph unicode="&#xe606;" glyph-name="bullet-add" d="M768 320v192h-128v-192h-192v-128h192v-192h128v192h192v128z" />
<glyph unicode="&#xe607;" glyph-name="bullet-background" d="M1024 256c0-176.731-143.269-320-320-320s-320 143.269-320 320c0 176.731 143.269 320 320 320s320-143.269 320-320z" />
<glyph unicode="&#xe608;" glyph-name="bullet-delete" d="M930.4 391.6l-90.8 90.8-135.6-136-135.6 136-90.8-90.8 136-135.6-136-135.6 90.8-90.8 135.6 136 135.6-136 90.8 90.8-136 135.6z" />
<glyph unicode="&#xe609;" glyph-name="bullet-remove" d="M448 320h512v-128h-512v128z" />
<glyph unicode="&#xe60a;" glyph-name="delete" d="M512 960c-282.8 0-512-229.2-512-512s229.2-512 512-512 512 229.2 512 512-229.2 512-512 512zM512 64c-212 0-384 172-384 384s172 384 384 384 384-172 384-384c0-212-172-384-384-384zM602.4 448l136 135.6-90.8 90.8-135.6-136-135.6 136-90.8-90.8 136-135.6-136-135.6 90.8-90.8 135.6 136 135.6-136 90.8 90.8z" />
<glyph unicode="&#xe60b;" glyph-name="home" d="M556 916c-28 28-60.4 27.6-88 0-21.6-21.6-464-468-464-468l88-88 36 36v-332c0-35.6 28-64 64-64h640c35.6 0 64 27.6 64 64 0 31.6 0 332 0 332l40-40 88 92c0 0-443.6 443.6-468 468zM832 64h-192c0 0 0 116.8 0 192.8 0 35.6-28 63.2-64.8 63.2h-127.6c-36 0-63.6-28-63.6-63.6 0-76 0-192.4 0-192.4h-192v396l320 320 320-324v-392z" />
<glyph unicode="&#xe60c;" glyph-name="hotel" d="M896 64v192h-768v-192h-128v768h128v-448h384v320c0 0 414.5 0 448 0s64-30.252 64-64c0-33.748 0-576 0-576h-128zM320 448c-70.692 0-128 57.308-128 128s57.308 128 128 128c70.692 0 128-57.308 128-128s-57.308-128-128-128z" />
<glyph unicode="&#xe60d;" glyph-name="info" d="M512 960c-282.8 0-512-229.2-512-512s229.2-512 512-512 512 229.2 512 512-229.2 512-512 512zM512 64c-212 0-384 172-384 384s172 384 384 384 384-172 384-384c0-212-172-384-384-384zM448 512h128v-320h-128v320zM448 704h128v-128h-128v128z" />
<glyph unicode="&#xe60e;" glyph-name="list" d="M0 960v-256h1024v256h-1024zM0 320h1024v256h-1024v-256zM0-64h1024v256h-1024v-256z" />
<glyph unicode="&#xe60f;" glyph-name="list-thumbnails" d="M0 960h256v-256h-256v256zM384 960v-256h640v256h-640zM384 320h640v256h-640v-256zM384-64h640v256h-640v-256zM0 576h256v-256h-256v256zM0 192h256v-256h-256v256z" />
<glyph unicode="&#xe610;" glyph-name="login" d="M832 960h-640c-36 0-64-28-64-64 0-19.6 0-448 0-448h128v384h512v-768h-512v192h-128c0 0 0-228.8 0-256 0-36 28-64 64-64h640c36.4 0 64 28.4 64 64v896c0 35.6-28 64-64 64zM432 576l-48-48 144-144h-464v-64h464l-144-144 48-48 224 224z" />
<glyph unicode="&#xe611;" glyph-name="logout" d="M256 832h512v-192h128c0 0 0 236.4 0 256 0 36-28 64-64 64h-640c-36 0-64-28.4-64-64v-896c0-35.6 27.6-64 64-64h640c36 0 64 28 64 64 0 27.2 0 64 0 64h-640v768zM752 128l224 224-224 224-48-48 144-144h-464v-64h464l-144-144 48-48z" />
<glyph unicode="&#xe612;" glyph-name="loop" d="M864 816c0 0-125.2 144-352 144-284.8 0-512-229.2-512-512h128c0 216 171.2 384 384 384 171.2 0 260-104 260-104l-84-88h272v272l-96-96zM896 448c0-216-171.2-384-384-384-171.2 0-260 104-260 104l84 88h-272v-272l96 96c0 0 125.2-144 352-144 285.2 0 512 229.2 512 512h-128z" />
<glyph unicode="&#xe613;" glyph-name="mail" d="M960 832h-896c-35.2 0-64-28.8-64-64v-640c0-35.2 28.8-64 64-64h896c35.2 0 64 28.8 64 64v640c0 35.2-28.8 64-64 64zM128 612l164-164-164-164v328zM128 192l212 212c0 0 108.4-108.4 128-128 26.4-26.4 61.2-26.8 88 0 14 14 128 128 128 128l212-212h-768zM896 284l-164 164 164 164v-328zM512 320l-384 384h768l-384-384z" />
<glyph unicode="&#xe614;" glyph-name="math" d="M320 704h-128v-192h-192v-128h192v-192h128v192h192v128h-192v192zM996 584l-92 92-136-136-136 136-92-92 136-136-136-136 88-88 140 140 136-136 88 88-132 132 136 136z" />
<glyph unicode="&#xe615;" glyph-name="medal" d="M240 960.8l67.6-520h42.4c0 0 7.6 19.2 50.4 136.8 35.6 88 184 87.6 215.6 0 42.8-116 50.4-136.8 50.4-136.8h46.4l68 520h-540.8zM781.6 379.6c-81.2 2-160 4-160 4s-26.8 76-54 153.6c-18 51.2-96.4 51.2-116 0-27.2-77.2-53.6-153.2-53.6-153.2s-77.2-2-158-4c-62-1.6-90.4-72-36-114.4 63.6-49.2 124.4-96.4 124.4-96.4s-21.6-73.6-44.4-150.8c-18-67.2 51.2-102.4 100.8-68 64.4 44.8 124.4 86.4 124.4 86.4s64-44.4 130.4-90.4c43.2-31.2 114.4 9.6 95.2 72.4-22.8 77.2-44.4 150.8-44.4 150.8s62.8 49.2 127.6 99.2c48 38.4 28.8 108-36.4 110.8z" />
<glyph unicode="&#xe616;" glyph-name="megaphone" d="M960 960c-20 0-36-12-36-12l-284-180c0 0-314 0-416 0s-224-70.8-224-224c0-149.2 122-224 224-224 81.2 0 416 0 416 0l284-180c0 0 16-12 36-12 36 0 64 28 64 64s0 688 0 704c0 36-28 64-64 64zM430.4 191.2l72.8 0.4 76.8-134.4c-0.4-0.4-0.8-0.8-1.6-1.2l-50-28.8c-1.2-0.8-2.4-1.2-3.6-1.6l-94.4 165.6zM540 256l-219.2-1.6c0 0 100.4-176.8 151.2-266.4 11.6-18.4 29.2-28 48.8-28 12.4 0 25.6 3.6 39.2 11.6 16.4 9.6 34.4 20 50.8 29.2 29.2 17.6 43.2 54 24.8 87.2-37.2 66-95.6 168-95.6 168v0z" />
<glyph unicode="&#xe617;" glyph-name="network" d="M864 480c-35.6 0-320 0-320 0v164h-64v-164c0 0-283.6 0-320 0s-64-28-64-64 0-164 0-164h64v164h320v-164h64v164h320v-164h64c0 0 0 127.6 0 164s-28.4 64-64 64zM191.6 256h-127.6c-36 0-64-28-64-63.6v-128c0-36.4 28-64.4 63.6-64.4h128c36.4 0 64.4 28 64.4 64.4v128c0 35.6-28 63.6-64.4 63.6zM575.6 256h-128c-36 0-64-28-64-63.6v-128c0-36.4 28-64.4 63.6-64.4h128c36.4 0 64.4 28 64.4 64.4v128c0.4 35.6-27.6 63.6-64 63.6zM959.6 256h-128c-36 0-64-28-64-63.6v-128c0-36.4 28-64.4 63.6-64.4h128c36.4 0 64.4 28 64.4 64.4v128c0.4 35.6-27.6 63.6-64 63.6zM575.6 896h-128c-36 0-64-28-64-63.6v-128c0.4-36.4 28.4-64.4 64-64.4h128c36.4 0 64.4 28 64.4 64.4v127.6c0 36-28 64-64.4 64z" />
<glyph unicode="&#xe618;" glyph-name="note" d="M960 960h-896c-36 0-64-28-64-64v-896c0-36 28-64 64-64 143.6 0 640 0 640 0l320 320c0 0 0 496 0 640 0 36-28 64-64 64zM896 320c0 0-121.6 0-192 0-36 0-64-28-64-64 0-70.4 0-192 0-192h-512v768h768v-512z" />
<glyph unicode="&#xe619;" glyph-name="pencil" d="M980 748l-168 168c-24 24-63.6 24.4-88 0l-696-696c-16-16-28-35.2-28-52s0-232 0-232 209.2 0 228 0 32.4 8.4 44 20l708 708c24 24 24 60 0 84zM196 60l-72 72 508 512 72-76-508-508zM752 616l-72 72 88 88 72-72-88-88z" />
<glyph unicode="&#xe61a;" glyph-name="plane" d="M1000 936c-31.2 31.2-76.4 32.4-132 0s-244-204-244-204l-496 164-128-64 420-316c0 0-62.4-66-152-196-18.4 0-204 0-204 0l-64-64 192-128 128-192 64 64c0 0 0 161.2 0 208 72 47.2 196 148 196 148l316-420 64 128-164 496c0 0 154.4 170 196 236s39.2 108.8 8 140z" />
<glyph unicode="&#xe61b;" glyph-name="remove" d="M512 960c-282.8 0-512-229.2-512-512s229.2-512 512-512 512 229.2 512 512-229.2 512-512 512zM512 64c-212 0-384 172-384 384s172 384 384 384 384-172 384-384c0-212-172-384-384-384zM256 512h512v-128h-512v128z" />
<glyph unicode="&#xe61c;" glyph-name="search" d="M640 960c-212 0-384-172-384-384s172-384 384-384 384 172 384 384c0 212-172 384-384 384zM640 320c-141.2 0-256 114.8-256 256s114.8 256 256 256 256-114.8 256-256c0-141.2-114.8-256-256-256zM442.8 378.8c-24.8 24.8-65.6 24.8-90.4 0l-331.6-331.2c-24.8-24.8-24.8-65.6 0-90.4s65.6-24.8 90.4 0l331.6 331.6c25.2 24.8 25.2 65.2 0 90z" />
<glyph unicode="&#xe61d;" glyph-name="sheet-text" d="M832 960c0 0-503.2 0-640.4 0-35.6 0-63.6-28-63.6-64s0-896 0-896c0-36 28-64 64-64h640c35.6 0 64 28.4 64 64v896c0 36-28 64-64 64zM768 64h-512v768h512v-768zM320 704h384v-64h-384v64zM320 512h384v-64h-384v64zM320 320h384v-64h-384v64z" />
<glyph unicode="&#xe61e;" glyph-name="shield" d="M512 960c0 0-284-162.8-448-256v-256c0-192 154-463.2 448-512 291.2 48.8 448 318.4 448 512v256c-132 74.4-448 256-448 256zM512 64c0 104.4 0 384 0 384h-320v192l320 192v-384h320c0 0 0-296.4-320-384z" />
<glyph unicode="&#xe61f;" glyph-name="signature" d="M960 128c-29.2-12-147.6-14-112 84 12 34.8-42.8 72-64 28s-36.4-61.6-64-60c-56 2.8-36 142.8-16 184s-28 90.8-64 20c-34.4-122.8-110.8-255.6-132-248s12 88.8 24 120c19.6 43.6-23.2 90-48 40-40-74.8-129.2-168-196-168-43.6 0-44.4-64 0-64 70.8 0 117.6 33.6 148 56 19.6-108.8 134.8-49.2 188 56 23.6-82.4 89.6-85.6 144-48 40-67.2 144.4-80.4 192-64 66.4 22.4 29.2 76 0 64zM704 896c-37.6 0-64.4-12.4-92-40s-404-404-404-404 15.6-15.6 44-44c-42-41.2-69.6-31.2-100-8-15.2-81.6-42.4-199.6-88-272 54 43.2 147.2 67.6 268 88-41.2 74 12 100 12 100l40-44c0 0 394 390 408 404s40 49.6 40 92c0 74-56.4 128-128 128zM748 724c-22.4-22.4-360-360-360-360l-88 88c0 0 345.6 345.6 360 360 61.6 61.6 148-28 88-88z" />
<glyph unicode="&#xe620;" glyph-name="user" d="M768 704c0-141.385-114.615-256-256-256s-256 114.615-256 256c0 141.385 114.615 256 256 256s256-114.615 256-256zM640 384h-256c-176.8 0-320-143.2-320-320v-128h896v128c0 176.8-143.2 320-320 320z" />
<glyph unicode="&#xe621;" glyph-name="world" d="M512 960c-282.8 0-512-229.2-512-512s229.2-512 512-512 512 229.2 512 512-229.2 512-512 512zM512 64c-212 0-384 172-384 384s172 384 384 384 384-172 384-384c0-212-172-384-384-384zM248 780c-190.8-119.2-224.8-406-48-604-7.2 86 86 256-80 200-1.2 6-6 38-8 56 245.2 48.8 173.2 252.4 136 348zM592 844c-98-105.2-43.2-136 0-76 17.2 22 39.2 9.2 24-12-21.2-28-69.2-45.2-104-44-65.2 2-30-28-40-60-42-3.2-67.2-8-40-68 11.2-24 65.2-21.2 76 12 47.2-52 61.2 39.2 80 24s53.2-31.2 12-68c-18-17.2-23.2-25.2-28-32-135.2 13.2-195.2-22-180-124 16-87.2 99.2-15.2 120-60 36-87.2 5.2-225.2 60-208 62 0 253.2 303.2 48 384 10 31.2 36 57.2 76-12s124-28 72 44c-14 20 1.2 45.2 20 12s55.2-182 120-64c-20.8 198.8-154 312-316 352z" />
<glyph unicode="&#xe622;" glyph-name="zoom-in" d="M640 960c-212 0-384-172-384-384s172-384 384-384 384 172 384 384c0 212-172 384-384 384zM640 320c-141.2 0-256 114.8-256 256s114.8 256 256 256 256-114.8 256-256c0-141.2-114.8-256-256-256zM442.8 378.8c-24.8 24.8-65.6 24.8-90.4 0l-331.6-331.2c-24.8-24.8-24.8-65.6 0-90.4s65.6-24.8 90.4 0l331.6 331.6c25.2 24.8 25.2 65.2 0 90zM704 640v128h-128v-128h-128v-128h128v-128h128v128h128v128z" />
<glyph unicode="&#xe623;" glyph-name="zoom-out" d="M640 960c-212 0-384-172-384-384s172-384 384-384 384 172 384 384c0 212-172 384-384 384zM640 320c-141.2 0-256 114.8-256 256s114.8 256 256 256 256-114.8 256-256c0-141.2-114.8-256-256-256zM442.8 378.8c-24.8 24.8-65.6 24.8-90.4 0l-331.6-331.2c-24.8-24.8-24.8-65.6 0-90.4s65.6-24.8 90.4 0l331.6 331.6c25.2 24.8 25.2 65.2 0 90zM448 640h384v-128h-384v128z" />
<glyph unicode="&#xe624;" glyph-name="calendar" d="M960 896h-128c0 36-28 64-64 64s-64-28-64-64h-128c0 36-28 64-64 64s-64-28-64-64h-128c0 36-28 64-64 64s-64-28-64-64h-128c-36 0-64-28-64-64v-832c0-36 28-64 64-64h896c36 0 64 28 64 64v832c0 36-28 64-64 64zM896 64h-768v704c0 0 56 0 64 0 0-35.6 28-64 64-64s64 28 64 64h128c0-35.6 28-64 64-64s64 28 64 64h128c0-36 28-64 64-64s64 28 64 64c7.2 0 64 0 64 0v-704zM192 512h128v128h-128v-128zM448 128h128v128h-128v-128zM192 128h128v128h-128v-128zM192 320h128v128h-128v-128zM448 320h128v128h-128v-128zM704 320h128v128h-128v-128zM448 512h128v128h-128v-128zM704 512h128v128h-128v-128zM704 128h128v128h-128v-128z" />
<glyph unicode="&#xe625;" glyph-name="history" d="M544 424v276h-64c0 0 0-283.6 0-288s3.6-15.6 16-28 168-168 168-168l44 44-164 164zM512 960c-225.2 0-356-144-356-144l-92 92v-268h268l-84 84c0 0 87.2 108 264 108 224 0 384-177.6 384-384 0-184-145.6-384-384-384s-384 196-384 384c-20 0-108.8 0-128 0 0-258.4 205.6-512 512-512 327.2 0 512 276 512 512 0 295.2-242.4 512-512 512z" />
<glyph unicode="&#xe626;" glyph-name="filter" d="M960 960h-896c-36 0-64-28.4-64-64v-168c0-28 20-44 20-44l300-300c0 0 52.4-365.2 56-392s28-56 64-56h144c35.6 0 60 28.8 64 56s56 392 56 392l300 300c0 0 20 16.8 20 44v168c0 35.6-28 64-64 64zM896 756l-320-320-52-372h-24l-52 372-320 320v76h768v-76z" />
<glyph unicode="&#xe627;" glyph-name="bullet-alert" d="M640 512h128v-320h-128v320zM640 128h128v-128h-128v128z" />
<glyph unicode="&#xe628;" glyph-name="bullet-arrow-left" d="M960 288h-384l144 144-48 48-224-224 224-224 48 48-144 144h384z" />
<glyph unicode="&#xe629;" glyph-name="bullet-arrow-right" d="M736 480l-48-48 144-144h-384v-64h384l-144-144 48-48 224 224z" />
<glyph unicode="&#xe62a;" glyph-name="add-alt" d="M576 512v192h-128v-192h-192v-128h192v-192h128v192h192v128z" />
<glyph unicode="&#xe62b;" glyph-name="add-alt2" d="M576 512v448h-128v-448h-448v-128h448v-448h128v448h448v128z" />
<glyph unicode="&#xe62c;" glyph-name="add-on" d="M512 576l192 192h-128v192h-128v-192h-128l192-192zM996 716c-13.6 6.8-356 180-356 180v-64c0 0 28 0 64 0s64-28.4 64-64c0-5.2 0-16 0-16s-0.4-12.4-16-28-240-228-240-228-228.8 216.8-240 228-16 28-16 28 0 8 0 16c0 36 28 64 64 64s64 0 64 0l-0.4 63.6c0 0-339.2-170-351.6-175.6-20.4-9.6-32-33.2-32-56v-436c0-26.8 15.6-47.6 32-56s426-209.6 448-220c22-10.4 43.2-10 64 0s431.6 217.2 452 228 28 32 28 52v432c0 21.2-8.8 42.8-28 52zM480 96l-352 176v312l352-176v-312zM896 272l-352-176v316l352 172v-312z" />
<glyph unicode="&#xe62d;" glyph-name="api" d="M576 768h-256v192l-320-320 320-320v192h256v256zM1024 256l-320 320v-192h-256v-256h256v-192l320 320z" />
<glyph unicode="&#xe62e;" glyph-name="arrow-down" d="M784 456l-208-208v648h-128v-648l-208 208-92-92 364-364 364 364z" />
<glyph unicode="&#xe62f;" glyph-name="arrow-left" d="M960 512h-648l208 208-92 92-364-364 364-364 92 92-208 208h648z" />
<glyph unicode="&#xe630;" glyph-name="arrow-right" d="M596 812l-92-92 208-208h-648v-128h648l-208-208 92-92 364 364z" />
<glyph unicode="&#xe631;" glyph-name="arrow-up" d="M512 896l-364-364 92-92 208 208v-648h128v648l208-208 92 92z" />
<glyph unicode="&#xe632;" glyph-name="auction" d="M960 64h-704c-35.2 0-64-28.8-64-64 0-17.6 0-64 0-64h832c0 0 0 47.6 0 64 0 35.2-28.8 64-64 64zM480 332.8l309.2 82.8-66.4 247.2-309.2-82.8 16.4-62-370.8-99.2c-34-9.2-54.4-44.4-45.2-78.4s44.4-54.4 78.4-45.2l370.8 99.2 16.8-61.6zM335.2 625.2c0 0 43.6 11.6 62 16.4l309.2 82.8c16.8 4.4 62 16.4 62 16.4s-12 44.4-16.4 62c-9.2 34-44.4 54.4-78.4 45.2l-309.6-82.8c-34-9.2-54.4-44.4-45.2-78.4 4.4-15.6 16.4-61.6 16.4-61.6zM434.8 254.4c0 0 12-44.4 16.4-62 9.2-34 44.4-54.4 78.4-45.2l309.2 82.8c34 9.2 54.4 44.4 45.2 78.4-4.4 15.6-16.4 62-16.4 62s-43.6-11.6-62-16.4l-309.2-82.8c-16.4-4.8-61.6-16.8-61.6-16.8z" />
<glyph unicode="&#xe633;" glyph-name="bullet-arrow-down" d="M880 272l-144-144v384h-64v-384l-144 144-48-48 224-224 224 224z" />
<glyph unicode="&#xe634;" glyph-name="bullet-arrow-up" d="M704 512l-224-224 48-48 144 144v-384h64v384l144-144 48 48z" />
<glyph unicode="&#xe635;" glyph-name="cart" d="M832 192c-63.2 0-456 0-456 0l-8 36 556 156 100 384h-800l-32 128h-192v-128h88l160-596c0 0-56-40-56-108s59.6-128 128-128 128 59.6 128 128h256c0-68 59.6-128 128-128s128 60 128 128-60 128-128 128zM860 640l-40-152-484-136-80 288h604zM320 0c-35.2 0-64 28.8-64 64s28.8 64 64 64 64-28.8 64-64-28.8-64-64-64zM832 0c-35.2 0-64 28.8-64 64s28.8 64 64 64 64-28.8 64-64-28.8-64-64-64z" />
<glyph unicode="&#xe636;" glyph-name="check" d="M512 960c-282.8 0-512-229.2-512-512s229.2-512 512-512 512 229.2 512 512-229.2 512-512 512zM512 64c-212 0-384 172-384 384s172 384 384 384 384-172 384-384c0-212-172-384-384-384zM476 424l-108 108-88-88 200-200 292 296-88 88-208-204z" />
<glyph unicode="&#xe637;" glyph-name="check-alt" d="M684 628l-208-204-108 108-88-88 200-200 292 296z" />
<glyph unicode="&#xe638;" glyph-name="check-alt2" d="M936 816l-556-556-292 292-88-88 384-384 640 648z" />
<glyph unicode="&#xe639;" glyph-name="delete-alt" d="M602.4 448l136 135.6-90.8 90.8-135.6-136-135.6 136-90.8-90.8 136-135.6-136-135.6 90.8-90.8 135.6 136 135.6-136 90.8 90.8z" />
<glyph unicode="&#xe63a;" glyph-name="delete-alt2" d="M919.2 764.8l-90.4 90.4-316.8-316.8-316.8 316.8-90.4-90.4 316.8-316.8-316.8-316.8 90.4-90.4 316.8 316.8 316.8-316.8 90.4 90.4-316.8 316.8z" />
<glyph unicode="&#xe63b;" glyph-name="euro" d="M768 256c0 0-63.6-56-160-56-195.6 0-260 184-260 184h308l16 64h-340v64h356l16 64h-356c0 0 58.4 180 260 180 98.8 0 160-48 160-48l32 140c0 0-85.6 48-192 48-264.4 0-391.6-231.6-404-320-44.4 0-76 0-76 0v-64h64v-64h-64v-64c0 0 59.6 0 76 0 7.6-64.4 117.2-320 404-320 123.6 0 196 52 196 52l-36 140z" />
<glyph unicode="&#xe63c;" glyph-name="file" d="M640 960c0 0-355.6 0-448.4 0-35.6 0-63.6-28-63.6-64s0-896 0-896c0-36 28-64 64-64h640c35.6 0 64 28.4 64 64v704l-256 256zM768 64h-512v768h320c0 0 0-120.4 0-128 0-36.4 27.6-64 64-64 7.2 0 128 0 128 0v-576z" />
<glyph unicode="&#xe63d;" glyph-name="file-txt" d="M640 960c0 0-436 0-448 0-36 0-64-28-64-64 0-12 0-384 0-384h128v320h320c0 0 0-104 0-128 0-36.4 28-64 64-64s128 0 128 0v-576h-128v-128c0 0 183.6 0 192 0 36 0 64 28 64 64 0 18 0 704 0 704l-256 256zM520 76c-4.4 26-64 372-64 372h-64c0 0-206-324.4-240-376s-88-48-88-48l-4-24h180c0 0 2 12 4 24-44 0-56 15.6-56 24 0 2 4 16 4 16l48 80h156c0 0 18.4-79.2 16-104-15.2-15.2-68-16-68-16l-4-24h236c0 0 2.4 15.2 4 24-48 4.4-55.6 26-60 52zM260 176l104 160 24-160h-128z" />
<glyph unicode="&#xe63e;" glyph-name="file-html" d="M640 960c0 0-436 0-448 0-36 0-64-28-64-64 0-12 0-384 0-384h128v320h320c0 0 0-104 0-128 0-36.4 28-64 64-64s128 0 128 0v-576h-128v-128c0 0 183.6 0 192 0 36 0 64 28 64 64 0 18 0 704 0 704l-256 256zM288 328l-44 44-180-180 184-184 44 44-140 140 136 136zM460 372l-44-44 136-136-140-140 44-44 184 184-180 180z" />
<glyph unicode="&#xe63f;" glyph-name="file-csv" d="M448-64h128v128h-128v-128zM296 448l-72-100-72 100h-88l116-160-116-160h88l72 100 72-100h88l-116 160 116 160h-88zM256-64h128v128h-128v-128zM448 128h128v128h-128v-128zM448 320h128v128h-128v-128zM640 960c0 0-436 0-448 0-36 0-64-28-64-64 0-12 0-384 0-384h128v320h320c0 0 0-104 0-128 0-36.4 28-64 64-64s128 0 128 0v-576h-128v-128c0 0 183.6 0 192 0 36 0 64 28 64 64 0 18 0 704 0 704l-256 256zM64-64h128v128h-128v-128z" />
<glyph unicode="&#xe640;" glyph-name="file-pdf" d="M640 960c0 0-436 0-448 0-36 0-64-28-64-64 0-12 0-384 0-384h128v320h320c0 0 0-104 0-128 0-36.4 28-64 64-64s128 0 128 0v-576h-128v-128c0 0 183.6 0 192 0 36 0 64 28 64 64 0 18 0 704 0 704l-256 256zM396 180c-33.2 32.4-84 108-84 108s73.2 172-16 159.2c-98.8-16-32-167.2-32-167.2s-30-88.8-72-144c-42.8-12-162.8-64-106-125.6 53.6-58.4 134 93.6 134 93.6s76.8 24 152 32c82-91.2 158.8-107.6 170.8-44.8s-49.6 92-146.8 88.8zM116 40c-8 8 22.4 36 48 48-16-22.4-42-52.8-48-48zM292 408c15.6 7.6-4-68-4-68s-10.8 60.8 4 68zM251.6 152c26.8 38.8 40.4 84.8 40.4 84.8s29.2-41.6 52.4-64.8c-8.8-0.4-60.8-7.2-92.8-20zM504 100c-10-20.4-42 10.4-76 40 63.6-0.8 85.2-21.6 76-40z" />
<glyph unicode="&#xe641;" glyph-name="floppy-disk" d="M960 960h-896c-36 0-64-28-64-64v-896c0-36 28-64 64-64 143.6 0 768 0 768 0l192 192c0 0 0 624 0 768 0 36-28 64-64 64zM256 832h512v-256h-512v256zM640 64h-128v192h128v-192zM896 192l-128-128h-64c0 0 0 184.4 0 192 0 36-28.4 64-64 64h-320c-36.4 0-64-27.6-64-64 0-8-1.2-192-1.2-192h-126.8v768h64c0 0 0-220.4 0-256s28-64 64-64h512c35.6 0 64 28.4 64 64 0 17.2 0 256 0 256h64v-640z" />
<glyph unicode="&#xe642;" glyph-name="gear" d="M896 448c0 95.2 111.6 128 111.6 128.4-12.4 48-31.6 92.8-56.4 134.4 0 0-101.6-56.8-167.6 9.2-64.8 64.8-10.4 168-10.4 168-40.8 24.8-85.6 43.6-133.6 56-0.4 0-33.2-112-127.6-112s-128 112-128 112c-48-12.4-92.8-31.6-134.4-56 0.4-0.8 56.8-101.6-9.6-168-65.2-65.2-167.2-10.8-168-10.4-24.8-41.2-43.6-86-56-133.6 0.8-0.4 112-29.6 112-128 0-95.6-110.8-127.6-112-127.6 12-47.6 31.2-92.4 55.6-133.6 1.2 0.8 108 53.6 168.4-6.8 64.8-64.8 11.2-171.2 10.4-172.4 41.2-24.4 86-43.2 133.2-55.6 0 0 28.4 111.6 128.4 111.6 96.8 0 128-112 128-112 47.6 12.4 92.4 31.2 133.6 55.6 0 0-57.2 100.8 10.4 168.4 64.4 64.4 168 10.4 168.4 10.4 24.4 41.2 43.2 86 55.6 133.6 0 0.4-112 35.2-112 128.4zM512 256c-106 0-192 86-192 192s86 192 192 192 192-86 192-192c0-106-86-192-192-192z" />
<glyph unicode="&#xe643;" glyph-name="suitcase" d="M960 704c-31.6 0-256 0-256 0s0 44 0 96-44.4 96-96 96h-192c-52 0-96-44-96-96 0-7.6 0-96 0-96s-224 0-256 0c-32 0-64-32-64-64v-576c0-32 32-64 64-64h896c32 0 64 32.4 64 64v576c0 32.4-32.4 64-64 64zM448 768h128v-64h-128v64zM896 128h-768v448h768v-448zM320 512h-64v-320h64v320zM768 512h-64v-320h64v320z" />
<glyph unicode="&#xe644;" glyph-name="money" d="M576-64c188.8 0 448 0 448 0v192c0 0-121.2 0-288 0-28.8-63.6-76-134.8-160-192zM704 288c0 194.4-157.6 352-352 352s-352-157.6-352-352c0-194.4 157.6-352 352-352s352 157.6 352 352zM432 320l-16-64h-188c0 0 35.6-128 156-128 49.2 0 92 24 92 24l16-60c0 0-55.2-28-108-28-186.4 0-220 192-220 192h-36v64c0 0 22.4 0 40 0 32 166.4 164.4 192 216 192s108-24 108-24l-16-64c0 0-37.6 24-92 24s-139.2-39.2-152-128c45.2 0 200 0 200 0zM736 448c175.2 0 288 0 288 0v192h-448c0 0 98.4-58.4 160-192zM756 192c162.4 0 268 0 268 0v192c0 0-104 0-268 0 10.8-42 6-142 0-192zM384 896v-192h640v192h-640z" />
<glyph unicode="&#xe645;" glyph-name="multiple-ways" d="M916 340l-180 180c0 0 32 48.4 32 120 0 139.6-116.4 256-256 256-141.2 0-256-114.4-256-256 0-65.6 28-116 28-116l-180-180-104 104v-256h256l-108 108 172 168c0 0 74.4-80 156-80 0-21.2 0-196 0-196h-156l192-192 192 192h-164c0 0 0 136 0 196 81.2 0 160 80 160 80l172-172-104-104h256v256l-108-108zM512 512c-70.8 0-128 57.2-128 128s57.2 128 128 128 128-57.2 128-128-57.2-128-128-128z" />
<glyph unicode="&#xe646;" glyph-name="paperclip" d="M919.2 855.2c-90.4 90.4-249.6 112.4-362 0-62-62-366-366-452.4-452.4s-110.4-251.6 0-362 271.2-90.8 362 0c90.8 90.8 90.4 90.4 90.4 90.4l-90.4 90.4c0 0-42.8-42.8-90.4-90.4s-129.2-51.6-181.2 0c-51.6 51.6-48 132.8 0 181.2s408 408 452.4 452.4c44.4 44.4 134.8 46 181.2 0 46-46 45.6-135.2 0-181.2l-203.6-203.6c-11.6-11.6-33.6-11.6-45.2 0s-11.2 34 0 45.2c7.6 7.6 158.4 158.4 158.4 158.4l-90.4 90.4c0 0-112.8-112.8-158.4-158.4s-80.8-145.6 0-226.4 178-48 226.4 0l203.6 203.6c106.8 107.6 90.4 272-0.4 362.4z" />
<glyph unicode="&#xe647;" glyph-name="remove-alt" d="M256 512h512v-128h-512v128z" />
<glyph unicode="&#xe648;" glyph-name="remove-alt2" d="M0 512h1024v-128h-1024v128z" />
<glyph unicode="&#xe649;" glyph-name="wrench" d="M996 796l-176-176-136 136 172 176c0 0-43.6 28-120 28-178.8 0-288-148-288-288 0-32 12-92 12-92s-205.2-205.2-260-260c-116 0-200-89.6-200-192 0-104.4 88.4-192 192-192 102.4 0 192 89.2 192 192 0 9.2 0 16 0 16l256 256c0 0 49.6-16 96-16 160 0 288 129.2 288 288 0 70.4-28 124-28 124zM192 64c-35.2 0-64 28.8-64 64s28.8 64 64 64 64-28.8 64-64-28.8-64-64-64z" />
<glyph unicode="&#xe64a;" glyph-name="graph-trend" d="M960 896h-896c-36 0-64-28-64-64v-768c0-36 28.4-64 64-64h896c36 0 64 28.4 64 64v768c0 36.4-28.4 64-64 64zM896 128h-768v640h768v-640zM356 292l128 168 156-156 192 336-56 32-152-260-148 144-156-208-128-28 16-64 148 36z" />
<glyph unicode="&#xe64b;" glyph-name="clipboard" d="M832 896c0 0-161.2 0-192.4 0 0 36-27.6 64-63.6 64h-128c-35.6 0-64-28.4-64-64-10.4 0-192 0-192 0-35.2 0-64-28.8-64-64v-832c0-35.2 28.8-64 64-64h640c35.2 0 64 28.8 64 64v832c0 35.2-28.8 64-64 64zM768 64h-512v704h63.6l0.4-64h384v64h64v-704z" />
<glyph unicode="&#xe64c;" glyph-name="calculator" d="M960 960h-896c-36 0-64-28-64-64v-896c0-36 28-64 64-64h896c36 0 64 28 64 64v896c0 36-28 64-64 64zM896 128h-320v64h320v-64zM896 256h-320v64h320v-64zM960 448h-448v-448h-448v896h896v-448zM256 64h64v128h128v64h-128v128h-64v-128h-128v-64h128v-128zM140 564l44-44 104 104 108-108 44 44-108 108 108 108-44 44-108-108-108 108-44-44 108-108-104-104zM892 704h-320v-64h320v64z" />
<glyph unicode="&#xe64d;" glyph-name="address-book" d="M640 576c0 70.8-57.2 128-128 128s-128-57.2-128-128 57.2-128 128-128 128 57.2 128 128zM1024 640c0 36-28 64-64 64v64c36 0 64 28 64 64s-28.4 64-64 64c0 35.6-28.4 64-64 64h-768c-36 0-64-28.4-64-64v-896c0-35.6 28-64 64-64h768c36.4 0 64 28 64 64 35.6 0 64 28 64 64s-28 64-64 64v64c36 0 64 27.6 64 64s-28.4 64-64 64v64c35.6 0 64 28 64 64s-28 64-64 64v64c35.6 0 64 28 64 64zM832 256c-4.4 0-26.4 0-72 0-28.4 110.4-128.8 192-248 192s-219.6-81.6-248-192c205.2 0 549.6 0 568 0v-192h-640v768h640v-576z" />
<glyph unicode="&#xe64e;" glyph-name="mail-alt" d="M955.6 691.6l-411.6 260c0 0-10.8 8-32 8s-32-8-32-8l-411.6-260c-45.2-29.6-68-71.6-68-115.6v-575.6c0-35.2 28.8-64 64-64h895.2c35.2 0 64 28.8 64 64v575.6c0 44-27.2 90.8-68 115.6zM128.4 484l164-164-164-164v328zM128.4 64.4l211.6 211.6c0 0 108-108 128-128 26.4-26.4 61.2-26.8 88 0 14 14 128 128 128 128l211.6-211.6h-767.2zM895.6 156.4l-164 164 164 164v-328zM128.4 576l383.6 243.6 383.6-243.6h-767.2z" />
<glyph unicode="&#xe64f;" glyph-name="file-duplicate" d="M704 832h-128.4l-127.6 128c0 0-312 0-320 0-34 0-64-30-64-64v-768c0-34 30-64 64-64 36 0 192 0 192 0v-64c0-36 28-64 64-64h512c35.6 0 64 28.4 64 64v576l-256 256zM320 192h-128v640h128v-640zM832 64h-384v640h192c0 0 0-120.4 0-128 0-36.4 27.6-64 64-64 7.2 0 128 0 128 0v-448z" />
<glyph unicode="&#xe650;" glyph-name="font" d="M906 150c-9.2 51.2-126 734-126 734h-126c0 0-405.6-640.4-472.8-742s-173.2-94.8-173.2-94.8l-8-47.2h354.4c0 0 4 23.6 8 47.2-86.8 0-110.4 30.4-110.4 47.2 0 4.4 8 31.6 8 31.6l94.4 158h307.2c0 0 36.4-156 31.6-205.2-29.6-29.6-134-31.6-134-31.6l-8-47.2h464.8c0 0 4.8 29.6 8 47.2-94.4 9.2-109.2 51.6-118 102.8zM394 347.2l204.8 315.6 47.2-315.6h-252z" />
<glyph unicode="&#xe651;" glyph-name="footer" d="M960 960h-896c-34 0-64-30-64-64v-896c0-34 30-64 64-64h896c34 0 64 30 64 64v896c0 34-30 64-64 64zM896 64h-768v768h768v-768zM256 128h512c33.6 0 64 30 64 64s0 30.4 0 64-30 64-64 64h-512c-34 0-64-30-64-64s0-30 0-64 30-64 64-64zM256 384h512c34 0 64 30 64 64v256c0 34.4-30 64-64 64h-512c-34 0-64-30-64-64v-256c0-34 30-64 64-64zM256 704h512v-256h-512v256z" />
<glyph unicode="&#xe652;" glyph-name="header" d="M960 960h-896c-34 0-64-30-64-64v-896c0-34 30-64 64-64h896c34 0 64 30 64 64v896c0 34-30 64-64 64zM896 64h-768v768h768v-768zM256 576h512c34 0 64 30 64 64s0 30 0 64-30 64-64 64h-512c-33.6 0-64-30-64-64s0-30.4 0-64 30-64 64-64zM256 128h512c34 0 64 30 64 64v256c0 34-30 64-64 64h-512c-34 0-64-30-64-64v-256c0-34.4 30-64 64-64zM256 448h512v-256h-512v256z" />
<glyph unicode="&#xe653;" glyph-name="layout" d="M960 960h-896c-34 0-64-30-64-64v-896c0-34 30-64 64-64h896c34 0 64 30 64 64v896c0 34-30 64-64 64zM896 64h-768v768h768v-768zM256 640h512c34.4 0 64 30 64 64 0 33.6-30 64-64 64h-512c-34 0-64-30-64-64s29.6-64 64-64zM256 384h128c34 0 64 30 64 64s-30.4 64-64 64h-128c-34 0-64-30-64-64s30-64 64-64zM768 512h-128c-34 0-64-30-64-64 0-33.6 30-64 64-64h128c34 0 64 30 64 64s-30 64-64 64zM256 128h512c34.4 0 64 30 64 64 0 33.6-30 64-64 64h-512c-34 0-64-30-64-64s29.6-64 64-64z" />
<glyph unicode="&#xe654;" glyph-name="luggage" d="M768 768c-33.6 0-64 0-64 0s0 96 0 128c0 34-30.4 64-64 64h-256c-34.4 0-64-30-64-64 0-32 0-128 0-128s-30 0-64 0-64-30-64-64v-640c0-34 29.6-64 64-64 0-14 0-64 0-64h64v64h384v-64h64c0 0 0 56 0 64 34 0 64 30 64 64v640c0 34-30.4 64-64 64zM384 896h256v-128h-256v128zM704 128h-384v512h384v-512z" />
<glyph unicode="&#xe655;" glyph-name="menu" d="M0 832v-128h1024v128h-1024zM0 384h1024v128h-1024v-128zM0 64h1024v128h-1024v-128z" />
<glyph unicode="&#xe656;" glyph-name="puzzle" d="M856 616c-13.6 13.6-18.4 49.2 16 52 56 4 116 56.8 116 132 0 35.6-29.2 124-128 124s-126-91.2-128-116c-2-24.8-31.2-37.2-48-20-18.4 18.4-172 172-172 172s-153.2-153.2-168-168c-14.8-14.8-8.4-47.2 20-52 75.2-8.8 112-80 112-128s-40-128-128-128-123.2 78.8-128 112-38 34-48 24c-13.2-13.2-172-172-172-172s152.8-152.8 168-168c15.2-15.2 15.2-48.8-16-52-58.8-5.2-116-58.8-116-128s58.4-128 128-128c71.6 0 119.6 55.2 124 112 2.4 29.2 34.4 41.6 52 24 21.6-21.6 172-172 172-172s152.8 156.8 164 168c11.2 11.2 22.4 49.2-16 52-52 4.4-112 56.4-112 128 0 56 43.6 128 128 128s122.8-74 124-108c2-32.8 34.4-45.6 52-28s172 172 172 172-154.4 154.4-168 168z" />
<glyph unicode="&#xe657;" glyph-name="quote-left" d="M244 436c-52.8 0-84 0.8-84 0 12.8 235.2 288 352 288 352s-34 57.2-48 80c-198-80.8-400-287.2-400-500 0-234 143.2-304 256-304s204 79.2 204 188c0 108.8-76 184-216 184zM808 436c-52.8 0-84 0.8-84 0 12.8 235.2 288 352 288 352s-34 57.2-48 80c-198-80.8-400-287.2-400-500 0-234 143.2-304 256-304s204 79.2 204 188c0 108.8-76 184-216 184z" />
<glyph unicode="&#xe658;" glyph-name="quote-right" d="M768 868c-112.8 0-204-79.2-204-188s76-184 216-184c52.8 0 84-0.8 84 0-12.8-235.2-288-352-288-352s34-57.2 48-80c198 80.8 400 287.2 400 500 0 234-143.2 304-256 304zM204 868c-112.8 0-204-79.2-204-188s76-184 216-184c52.8 0 84-0.8 84 0-12.8-235.2-288-352-288-352s34-57.2 48-80c198 80.8 400 287.2 400 500 0 234-143.2 304-256 304z" />
<glyph unicode="&#xe659;" glyph-name="seat" d="M576 384c-21.2 0-41.6 0-64 0-12 37.2-80.4 248-92 284s-49.2 46.4-80 36c-30.8-10.4-49.2-46.4-40-76s100.8-311.2 108-332 37.2-40 60-40 53.2 0 108 0c38.4 0 128-30.8 128-128 0-31.6 0-116.4 0-128 0-31.2 25.2-64 64-64s64 32 64 64c0 2.8 0 86.8 0 128 0 154-122.8 256-256 256zM576 192c-24.4 0-208 0-208 0s-126.8 370.8-140 408-56.8 46-84 36-47.2-46.4-36-80 138.8-406.8 148-436 25.2-56 64-56c24.4 0 232 0 256 0s64 23.6 64 64c0 31.6-28 64-64 64zM368 736c62 0 112 50 112 112s-50 112-112 112-112-50-112-112c0-62 50-112 112-112z" />
<glyph unicode="&#xe65a;" glyph-name="sheets-attached" d="M832 704c-8.4 0-64 0-64 0s0 56 0 64c0 36-28 64-64 64-6.4 0-192 0-192 0s0 24.4 0 32c0 52-43.6 96-96 96s-96-44.4-96-96c0-6 0-32 0-32s-96 0-128 0c-36.4 0-64-28-64-64 0-32 0-632 0-640 0-36 28-64 64-64 5.2 0 64 0 64 0s0-55.2 0-64c0-36 28-64 64-64 5.6 0 383.2 0 383.2 0l193.2 192c0 0 0 506 0 512-0.4 36-28.4 64-64.4 64zM384 864c0 0 2 32 32 32s32-32 32-32v-32h-64v32zM256 192v512h64c0 0 0-56 0-96 0-51.6 43.6-96 96-96 51.6 0 96 44.4 96 96 0 7.6-4.4 32-32 32s-32-24.4-32-32-3.6-32-32-32-32 24-32 32 0 96 0 96h256v-384c0 0-44.4 0-64 0-36.4 0-64-28.4-64-64 0-8.4 0-64 0-64h-256zM832 160l-161.2-160h-350.8v64h256l192 192v384h64v-480z" />
<glyph unicode="&#xe65b;" glyph-name="speech" d="M960 896c-33.6 0-862 0-896 0s-64-30.4-64-64 0-542 0-576 29.6-64 64-64 192 0 192 0l256-256v256c0 0 440 0 448 0 33.6 0 64 29.6 64 64 0 16.4 0 542.4 0 576s-30.4 64-64 64zM896 320h-512v-72l-76 72h-180v448h768v-448z" />
<glyph unicode="&#xe65c;" glyph-name="sun" d="M192 448c0 36-28 64-64 64h-64c-36 0-64-28-64-64s28-64 64-64h64c36 0 64 28 64 64zM512 768c36 0 64 28 64 64v64c0 36-28 64-64 64s-64-28-64-64v-64c0-36 28-64 64-64zM828.8 674.4c6 6 28.4 28.4 45.2 45.2 25.6 25.6 25.2 65.2 0 90.4-25.6 25.6-65.2 25.6-90.4 0l-45.2-45.2c-25.6-25.6-25.6-64.8 0-90.4s65.2-25.6 90.4 0zM195.2 221.6c-25.6-25.6-40-40-45.2-45.2-25.6-25.6-25.6-64.8 0-90.4s65.2-25.2 90.4 0c6 6 28.4 28.4 45.2 45.2 25.6 25.6 25.2 65.2 0 90.4-25.6 25.6-64.8 25.6-90.4 0zM512 704c-141.2 0-256-114.8-256-256s114.8-256 256-256 256 114.8 256 256c0 141.2-114.8 256-256 256zM828.8 221.6c-25.6 25.6-64.8 25.6-90.4 0s-25.2-65.2 0-90.4c6-6 28.4-28.4 45.2-45.2 25.6-25.6 65.2-25.2 90.4 0 25.6 25.6 25.6 65.2 0 90.4-25.6 25.6-40 40-45.2 45.2zM512 128c-36 0-64-28-64-64v-64c0-36 28-64 64-64s64 28 64 64v64c0 36-28 64-64 64zM960 512h-64c-36 0-64-28-64-64s28-64 64-64h64c36 0 64 28 64 64s-28 64-64 64zM195.2 674.4c25.6-25.6 65.2-25.2 90.4 0 25.6 25.6 25.6 65.2 0 90.4l-45.2 45.2c-25.6 25.6-64.8 25.6-90.4 0s-25.2-65.2 0-90.4c5.6-6 28.4-28.4 45.2-45.2z" />
<glyph unicode="&#xe65d;" glyph-name="vcard" d="M832 576h-256v-64h256v64zM384 512c0 35.2-28.8 64-64 64s-64-28.8-64-64 28.8-64 64-64 64 28.8 64 64zM320 448c-75.2 0-128-61.2-128-128 14 0 232.8 0 256 0 0 66.8-52.8 128-128 128zM960 832c-34 0-862.4 0-896 0s-64-30-64-64 0-606.4 0-640 29.6-64 64-64 862 0 896 0 64 30 64 64 0 605.6 0 640-30 64-64 64zM896 192h-768v512h768v-512zM832 384h-256v-64h256v64z" />
<glyph unicode="&#xe65e;" glyph-name="arrow-down-alt" d="M512 376l272 272 92-92-364-364-364 364 92 92 272-272z" />
<glyph unicode="&#xe65f;" glyph-name="arrow-left-alt" d="M440 448l272 272-92 92-364-364 364-364 92 92-272 272z" />
<glyph unicode="&#xe660;" glyph-name="arrow-right-alt" d="M584 448l-272 272 92 92 364-364-364-364-92 92 272 272z" />
<glyph unicode="&#xe661;" glyph-name="arrow-up-alt" d="M512 520l272-272 92 92-364 364-364-364 92-92 272 272z" />
<glyph unicode="&#xe662;" glyph-name="phone" d="M220 320c0 0 127.2-20 156-144-111.2-176-220-240-220-240s-146.4 28-156 184c0 103 38.6 342.6 280 584 214.4 214.4 487 256 560 256s154.4-52.8 184-160c-92.8-129.6-232-220-232-220s-124 20.8-148 160c-302.4-132-424-420-424-420z" />
<glyph unicode="&#xe663;" glyph-name="picture" d="M960 0c-32 0-862 0-896 0s-64 30-64 64c0 12 0 734 0 768s29.876 64 64 64c34.124 0 861.876 0 896 0s64-30.124 64-64c0-33.876 0-746.876 0-768 0-34-29.876-64-64-64zM896 768h-768v-640h768v640zM576 320l100 64 156-192h-640l240 320 144-192zM736 512c-53.020 0-96 42.98-96 96s42.98 96 96 96c53.020 0 96-42.98 96-96s-42.98-96-96-96z" />
<glyph unicode="&#xe664;" glyph-name="slider" d="M1024 128c0 21.124 0 606.124 0 640s-29.876 64-64 64c-34.124 0-861.876 0-896 0s-64-30-64-64c0-34 0-628 0-640 0-34 30-64 64-64s864 0 896 0c34.124 0 64 30 64 64zM896 192h-768v512h768v-512zM320 256l144 192 86.4-115.2 60 38.4 93.6-115.2h-384zM192 448l104 104 48-48-56-56 56-56-48-48-104 104zM832 448l-104 104-48-48 56-56-56-56 48-48 104 104z" />
<glyph unicode="&#xe665;" glyph-name="speech-multiple" d="M768 0l128 128c0 0 29.752 0 64 0s64 30 64 64c0 34 0 222.248 0 256 0 33.748-30 64-64 64-12.724 0-127.2 0-127.2 0l-0.8-192-320 0.8c0 0 0-120.332 0-128.8 0-34.252 30.252-64 64-64 8 0 192 0 192 0v-128zM384 0v256c0 0 440 0 448 0 33.752 0 64 29.748 64 64 0 16.248 0 478.252 0 512 0 33.752-30.5 64-64 64s-734 0-768 0c-34 0-64-30.248-64-64 0-33.748 0-478 0-512s29.748-64 64-64c34.252 0 64 0 64 0l256-256zM128 384v384h640v-384h-512v-72l-76 72h-52z" />
<glyph unicode="&#xe900;" glyph-name="video" d="M960 0c-32 0-862 0-896 0s-64 30-64 64c0 12 0 734 0 768s29.876 64 64 64c34.124 0 861.876 0 896 0s64-30.124 64-64c0-33.876 0-746.876 0-768 0-34-29.876-64-64-64zM896 768h-768v-640h768v640zM384 256v384l256-192-256-192z" />
</font>
</defs>
</svg>
